<svg width="24" height="24" viewBox="0 0 24 24" fill="currentColor" xmlns="http://www.w3.org/2000/svg">
<path d="M4.39633 7.73701L11.4238 14.6535C11.5772 14.8052 11.7841 14.8903 11.9998 14.8903C12.2155 14.8903 12.4225 14.8052 12.5758 14.6535L19.6033 7.73851C19.7576 7.5869 19.9653 7.50194 20.1816 7.50194C20.3979 7.50194 20.6056 7.5869 20.7598 7.73851C20.8358 7.81258 20.8962 7.9011 20.9374 7.99886C20.9786 8.09663 20.9999 8.20166 20.9999 8.30776C20.9999 8.41386 20.9786 8.51889 20.9374 8.61665C20.8962 8.71442 20.8358 8.80294 20.7598 8.87701L13.7338 15.792C13.2711 16.2464 12.6484 16.501 11.9998 16.501C11.3513 16.501 10.7286 16.2464 10.2658 15.792L3.23984 8.87701C3.16363 8.80292 3.10306 8.7143 3.0617 8.6164C3.02033 8.5185 2.99902 8.41329 2.99902 8.30701C2.99902 8.20073 3.02033 8.09552 3.0617 7.99762C3.10306 7.89972 3.16363 7.8111 3.23984 7.73701C3.39412 7.58539 3.60178 7.50044 3.81808 7.50044C4.03439 7.50044 4.24205 7.58539 4.39633 7.73701Z"/>
</svg>
