<svg width="24" height="24" viewBox="0 0 24 24" fill="none" xmlns="http://www.w3.org/2000/svg">
<path d="M4 4H5.626C6.193 4 6.476 4 6.702 4.124C6.79517 4.17529 6.87957 4.24112 6.952 4.319C7.127 4.508 7.196 4.783 7.333 5.333L7.515 6.06C7.616 6.464 7.667 6.666 7.745 6.836C7.87833 7.12609 8.07918 7.38005 8.33074 7.57664C8.58231 7.77323 8.87728 7.90674 9.191 7.966C9.375 8 9.583 8 10 8" stroke="white" stroke-width="2" stroke-linecap="round"/>
<path d="M18.0001 17H7.55008C7.40508 17 7.33208 17 7.27608 16.994C7.13724 16.9785 7.00317 16.9341 6.88254 16.8636C6.76191 16.7932 6.65738 16.6982 6.5757 16.5848C6.49401 16.4715 6.43698 16.3423 6.40829 16.2056C6.37959 16.0688 6.37986 15.9276 6.40908 15.791C6.43207 15.7025 6.4591 15.6151 6.49008 15.529C6.54208 15.375 6.56708 15.298 6.59608 15.229C6.73843 14.888 6.97245 14.5932 7.27217 14.3771C7.5719 14.1611 7.92561 14.0323 8.29408 14.005C8.36808 14 8.45008 14 8.61108 14H14.0001" stroke="white" stroke-width="2" stroke-linecap="round" stroke-linejoin="round"/>
<path d="M14.5281 14H10.9741C9.75812 14 9.15012 14 8.68112 13.725C8.48339 13.6086 8.30715 13.4591 8.16012 13.283C7.81012 12.865 7.71012 12.265 7.51112 11.066C7.30812 9.851 7.20712 9.243 7.44812 8.793C7.54838 8.6052 7.68746 8.44089 7.85612 8.311C8.26012 8 8.87612 8 10.1081 8H16.7641C18.2141 8 18.9391 8 19.2331 8.474C19.5261 8.949 19.2011 9.597 18.5531 10.894L18.1061 11.789C17.5681 12.865 17.2991 13.403 16.8161 13.701C16.3321 14 15.7311 14 14.5281 14Z" stroke="white" stroke-width="2" stroke-linecap="round"/>
<path d="M17 21C17.5523 21 18 20.5523 18 20C18 19.4477 17.5523 19 17 19C16.4477 19 16 19.4477 16 20C16 20.5523 16.4477 21 17 21Z" fill="white"/>
<path d="M9 21C9.55228 21 10 20.5523 10 20C10 19.4477 9.55228 19 9 19C8.44772 19 8 19.4477 8 20C8 20.5523 8.44772 21 9 21Z" fill="white"/>
</svg>
