<svg width="16" height="16" viewBox="0 0 16 16" fill="currentColor" xmlns="http://www.w3.org/2000/svg">
<path d="M12.2186 15C11.6086 15 10.7517 14.7794 9.46861 14.0625C7.9083 13.1875 6.70142 12.3797 5.14955 10.8319C3.6533 9.33656 2.92517 8.36844 1.90611 6.51406C0.754861 4.42031 0.951111 3.32281 1.17049 2.85375C1.43174 2.29312 1.81736 1.95781 2.3158 1.625C2.59891 1.43951 2.89851 1.28051 3.2108 1.15C3.24205 1.13656 3.27111 1.12375 3.29705 1.11219C3.45174 1.0425 3.68611 0.937187 3.98299 1.04969C4.18111 1.12406 4.35799 1.27625 4.63486 1.54969C5.20267 2.10969 5.97861 3.35687 6.26486 3.96937C6.45705 4.38219 6.58424 4.65469 6.58455 4.96031C6.58455 5.31812 6.40455 5.59406 6.18611 5.89187C6.14517 5.94781 6.10455 6.00125 6.06517 6.05312C5.82736 6.36562 5.77517 6.45594 5.80955 6.61719C5.87924 6.94125 6.39892 7.90594 7.25299 8.75813C8.10705 9.61031 9.04392 10.0972 9.36924 10.1666C9.53736 10.2025 9.62955 10.1481 9.95205 9.90187C9.9983 9.86656 10.0458 9.83 10.0955 9.79344C10.4286 9.54563 10.6917 9.37031 11.0411 9.37031H11.043C11.347 9.37031 11.6074 9.50219 12.0386 9.71969C12.6011 10.0034 13.8858 10.7694 14.4492 11.3378C14.7233 11.6141 14.8761 11.7903 14.9508 11.9881C15.0633 12.2859 14.9574 12.5194 14.8883 12.6756C14.8767 12.7016 14.8639 12.73 14.8505 12.7616C14.7189 13.0733 14.559 13.3723 14.3727 13.6547C14.0405 14.1516 13.7039 14.5363 13.142 14.7978C12.8535 14.9343 12.5378 15.0034 12.2186 15Z"/>
</svg>
