<svg width="24" height="24" viewBox="0 0 24 24" fill="currentColor" xmlns="http://www.w3.org/2000/svg">
<path d="M7.73603 4.39731L14.6525 11.4248C14.8042 11.5781 14.8893 11.7851 14.8893 12.0008C14.8893 12.2165 14.8042 12.4235 14.6525 12.5768L7.73753 19.6043C7.58592 19.7586 7.50097 19.9663 7.50097 20.1826C7.50097 20.3989 7.58592 20.6065 7.73753 20.7608C7.8116 20.8368 7.90012 20.8972 7.99789 20.9384C8.09565 20.9796 8.20068 21.0009 8.30678 21.0009C8.41288 21.0009 8.51791 20.9796 8.61568 20.9384C8.71344 20.8972 8.80197 20.8368 8.87603 20.7608L15.791 13.7348C16.2454 13.272 16.5 12.6494 16.5 12.0008C16.5 11.3522 16.2454 10.7296 15.791 10.2668L8.87603 3.24081C8.80194 3.16461 8.71333 3.10404 8.61542 3.06267C8.51752 3.02131 8.41232 3 8.30603 3C8.19975 3 8.09455 3.02131 7.99664 3.06267C7.89874 3.10404 7.81012 3.16461 7.73603 3.24081C7.58442 3.39509 7.49946 3.60275 7.49946 3.81906C7.49946 4.03537 7.58442 4.24303 7.73603 4.39731Z" />
</svg>
