<svg width="52" height="10" viewBox="0 0 52 10" fill="none" xmlns="http://www.w3.org/2000/svg">
<g clip-path="url(#clip0_826_459)">
<path d="M47.2105 2.07797C46.4106 2.30125 45.5884 2.43494 44.759 2.47658L38.0755 3.20074C36.5634 3.37345 35.0723 3.69616 33.6242 4.16408C32.835 4.42973 32.0757 4.77709 31.3587 5.20049C30.5825 5.72353 29.7749 6.19834 28.9404 6.62223C28.4375 6.85761 27.8878 6.97574 27.3326 6.96771C26.7214 6.93215 26.1435 6.6774 25.7049 6.25019C24.8612 5.37987 24.6287 4.32353 24.0772 3.64587C23.8491 3.31311 23.506 3.07647 23.1139 2.98151C22.6936 2.88833 22.2553 2.91831 21.8516 3.06787C20.9452 3.39758 20.1849 4.03782 19.7057 4.87495C19.1277 5.73198 18.6759 6.7086 18.0182 7.62542C17.3781 8.61057 16.4295 9.35585 15.3209 9.74476C14.739 9.91092 14.1223 9.91092 13.5404 9.74476C12.9891 9.58124 12.4808 9.29763 12.0522 8.9143C11.2858 8.21094 10.6885 7.34333 10.3049 6.37641C9.91959 5.48616 9.64054 4.62248 9.25521 3.86511C8.81334 2.82982 8.01098 1.98994 6.99695 1.50125C5.98293 1.01256 4.82607 0.908235 3.74097 1.20764C3.16462 1.35292 2.62589 1.61949 2.16075 1.98954C1.69561 2.35959 1.31477 2.82461 1.04364 3.35355C0.610002 4.16986 0.403487 5.08764 0.445698 6.01102C0.462342 6.60265 0.588506 7.18607 0.817762 7.73173C0.970566 8.11706 1.07686 8.30973 1.04364 8.3363C1.01043 8.36288 0.850974 8.19678 0.62509 7.83138C0.298973 7.28639 0.0970721 6.67618 0.0337932 6.04423C-0.0934455 5.03327 0.0725961 4.00705 0.512138 3.0878C0.79995 2.46244 1.21882 1.90625 1.74037 1.45692C2.26192 1.00758 2.87396 0.675607 3.53502 0.48348C4.34237 0.247828 5.19223 0.195925 6.02226 0.33158C6.85229 0.467236 7.64143 0.787014 8.33175 1.26744C9.08289 1.82874 9.68508 2.56552 10.0857 3.41334C10.5175 4.2438 10.8231 5.12076 11.2018 5.95122C11.536 6.77865 12.054 7.51927 12.7166 8.11706C13.0189 8.40768 13.3917 8.61446 13.7983 8.71698C14.2049 8.81951 14.6313 8.81424 15.0352 8.7017C15.9067 8.37502 16.6499 7.77633 17.1545 6.99428C17.7325 6.19039 18.1843 5.21377 18.8155 4.27037C19.1365 3.78123 19.5182 3.33476 19.9515 2.94164C20.4081 2.54478 20.9387 2.24221 21.5128 2.05139C22.1052 1.84877 22.7422 1.81428 23.3531 1.95174C23.9729 2.10491 24.5187 2.47194 24.8944 2.98815C25.5986 3.93155 25.8378 4.98124 26.4092 5.50609C26.6685 5.76623 27.0128 5.92424 27.3791 5.95122C27.7827 5.9543 28.1821 5.8681 28.5484 5.69876C29.3507 5.30121 30.1293 4.85756 30.8804 4.37003C31.658 3.9243 32.4823 3.5656 33.3385 3.3004C34.8537 2.84724 36.4126 2.55551 37.9891 2.43008C40.8459 2.19091 43.1379 2.11782 44.7324 2.0381C45.5574 1.95973 46.3885 1.97311 47.2105 2.07797Z" fill="#034833"/>
<path d="M45.4772 6.20329C45.424 6.06377 46.1415 5.6718 47.2244 5.02072C47.7692 4.69518 48.4137 4.29656 49.1046 3.82486C49.4501 3.59233 49.769 3.33322 50.1676 3.06748C50.3383 2.9514 50.4964 2.8178 50.6393 2.66886C50.7589 2.55155 50.8537 2.41149 50.9183 2.25695C50.9515 2.13072 50.9183 2.13736 50.9183 2.09086C50.822 2.00275 50.7018 1.94498 50.5729 1.92477L49.284 1.5793C48.4602 1.35342 47.7227 1.13418 47.1049 0.914935C45.8691 0.516315 45.1118 0.197413 45.1583 0.0578959C45.2048 -0.0816211 46.002 -0.0284701 47.2842 0.184127C47.9486 0.290426 48.6794 0.436586 49.5165 0.609322L50.8453 0.901645C51.1849 0.963468 51.4965 1.13086 51.7355 1.37999C51.8836 1.5479 51.9784 1.75602 52.0079 1.97792C52.0351 2.18185 52.0123 2.38933 51.9415 2.58249C51.8301 2.88344 51.6531 3.15579 51.4233 3.37973C51.236 3.57239 51.0263 3.7419 50.7987 3.88465C50.4134 4.16368 50.0214 4.4095 49.6494 4.63538C48.9855 5.03243 48.2926 5.37888 47.5766 5.67179C46.3408 6.19 45.5303 6.33616 45.4772 6.20329Z" fill="#034833"/>
</g>
<defs>
<clipPath id="clip0_826_459">
<rect width="52" height="9.86585" fill="white"/>
</clipPath>
</defs>
</svg>
