<svg width="24" height="24" viewBox="0 0 24 24" fill="none" xmlns="http://www.w3.org/2000/svg">
<path d="M3.616 20.192C3.15533 20.192 2.771 20.038 2.463 19.73C2.155 19.422 2.00067 19.0377 2 18.577V9.923C2 9.781 2.04767 9.662 2.143 9.566C2.23833 9.47 2.35733 9.42234 2.5 9.423C2.64267 9.42367 2.76167 9.47134 2.857 9.566C2.95233 9.66067 3 9.77967 3 9.923V18.577C3 18.7303 3.064 18.8713 3.192 19C3.32 19.1287 3.461 19.1927 3.615 19.192H18C18.1427 19.192 18.2617 19.24 18.357 19.336C18.4523 19.432 18.5 19.5507 18.5 19.692C18.5 19.8333 18.4523 19.9523 18.357 20.049C18.2617 20.1457 18.1427 20.1933 18 20.192H3.616ZM6.616 17.192C6.15533 17.192 5.771 17.038 5.463 16.73C5.155 16.422 5.00067 16.0377 5 15.577V7C5 6.768 5.07667 6.57534 5.23 6.422C5.38333 6.26867 5.576 6.192 5.808 6.192H10.308V4.615C10.308 4.155 10.462 3.77067 10.77 3.462C11.078 3.15334 11.4623 2.99934 11.923 3H15.077C15.537 3 15.9213 3.154 16.23 3.462C16.5387 3.77 16.6927 4.15434 16.692 4.615V6.192H21.192C21.424 6.192 21.6167 6.26867 21.77 6.422C21.9233 6.57534 22 6.768 22 7V15.577C22 16.037 21.846 16.4213 21.538 16.73C21.23 17.0387 20.8457 17.1927 20.385 17.192H6.616ZM6.616 16.192H20.385C20.5383 16.192 20.6793 16.128 20.808 16C20.9367 15.872 21.0007 15.731 21 15.577V7.192H6V15.577C6 15.7303 6.064 15.8713 6.192 16C6.32 16.1287 6.461 16.1927 6.615 16.192M11.308 6.192H15.692V4.615C15.692 4.46167 15.628 4.32067 15.5 4.192C15.372 4.06334 15.231 3.99934 15.077 4H11.923C11.7697 4 11.6287 4.064 11.5 4.192C11.3713 4.32 11.3073 4.461 11.308 4.615V6.192Z" fill="white"/>
</svg>
