<svg width="64" height="64" viewBox="0 0 64 64" fill="none" xmlns="http://www.w3.org/2000/svg">
<path d="M42.6673 42.0266V16.6666C42.6673 15.2521 42.1054 13.8955 41.1052 12.8953C40.105 11.8952 38.7485 11.3333 37.334 11.3333H10.6673C9.25283 11.3333 7.89628 11.8952 6.89608 12.8953C5.89589 13.8955 5.33398 15.2521 5.33398 16.6666V40.6666C5.33398 41.3738 5.61494 42.0521 6.11503 42.5522C6.61513 43.0523 7.29341 43.3333 8.00065 43.3333H9.89398C10.4138 42.1464 11.2682 41.1367 12.3528 40.4277C13.4373 39.7187 14.7049 39.3411 16.0007 39.3411C17.2964 39.3411 18.564 39.7187 19.6485 40.4277C20.7331 41.1367 21.5875 42.1464 22.1073 43.3333H41.894C42.0895 42.8621 42.3473 42.4266 42.6673 42.0266ZM42.6673 42.0266C43.3603 41.0866 44.289 40.3459 45.3597 39.8795C46.4303 39.413 47.6051 39.2371 48.7654 39.3697C49.9257 39.5022 51.0306 39.9384 51.9685 40.6343C52.9064 41.3302 53.6441 42.2612 54.1073 43.3333H58.6673V35.6266C58.6683 33.6915 58.1429 31.7926 57.1473 30.1333L53.8673 24.6666L51.4407 20.6399C51.2046 20.2418 50.8691 19.912 50.467 19.6829C50.0649 19.4538 49.6101 19.3333 49.1473 19.3333H42.6673V42.0266Z" stroke="white" stroke-width="5" stroke-linecap="round" stroke-linejoin="round"/>
<path d="M29.334 30H16.0006M29.334 22H16.0006M22.6673 46C22.6685 46.9917 22.4484 47.9713 22.023 48.8671C21.5977 49.763 20.9778 50.5528 20.2086 51.1787C19.4393 51.8047 18.5401 52.2512 17.5765 52.4856C16.6129 52.72 15.609 52.7365 14.6382 52.5338C13.6674 52.3311 12.7541 51.9144 11.9647 51.314C11.1753 50.7136 10.5299 49.9447 10.0754 49.0632C9.62084 48.1818 9.3687 47.21 9.33732 46.2188C9.30594 45.2275 9.49612 44.2418 9.89398 43.3333C10.5079 41.9317 11.5852 40.7839 12.9453 40.0826C14.3053 39.3813 15.8652 39.1692 17.3631 39.4819C18.861 39.7946 20.2057 40.6131 21.1715 41.7999C22.1374 42.9868 22.6655 44.4698 22.6673 46ZM54.6673 46C54.6685 46.9917 54.4484 47.9713 54.023 48.8671C53.5977 49.763 52.9778 50.5528 52.2086 51.1787C51.4393 51.8047 50.5401 52.2512 49.5765 52.4856C48.6128 52.72 47.609 52.7365 46.6382 52.5338C45.6674 52.3311 44.7541 51.9144 43.9647 51.314C43.1753 50.7136 42.5299 49.9447 42.0754 49.0632C41.6208 48.1818 41.3687 47.21 41.3373 46.2188C41.3059 45.2275 41.4961 44.2418 41.894 43.3333C42.0895 42.8622 42.3473 42.4267 42.6673 42.0267C43.3603 41.0866 44.289 40.346 45.3597 39.8795C46.4303 39.4131 47.6051 39.2372 48.7654 39.3697C49.9257 39.5023 51.0306 39.9385 51.9685 40.6344C52.9064 41.3303 53.6441 42.2612 54.1073 43.3333C54.4806 44.1733 54.6726 45.0827 54.6673 46Z" stroke="white" stroke-width="5" stroke-linecap="round" stroke-linejoin="round"/>
</svg>
