<svg width="64" height="64" viewBox="0 0 64 64" fill="none" xmlns="http://www.w3.org/2000/svg">
<path d="M17.8751 3.28564H30.5986C33.5128 3.28564 35.162 3.7085 37.0968 5.60564L37.322 5.82964L52.1083 20.8571C54.1768 22.9782 54.5974 24.4491 54.6237 27.6582L54.626 52.3302C54.626 57.7896 51.9757 60.6011 46.6511 60.7108L46.322 60.7142H17.8763C12.4683 60.7142 9.68427 58.0388 9.57569 52.6628L9.57227 52.3302V11.6959C9.57227 6.2365 12.2466 3.39993 17.5483 3.28907L17.8751 3.28564ZM30.01 7.59764H18.1151C15.4203 7.59764 13.978 9.0285 13.8877 11.5234L13.8831 11.7771V52.2502C13.8831 54.8422 15.2386 56.3051 17.826 56.3965L18.0888 56.4022H46.1071C48.802 56.4022 50.2191 55.0216 50.3071 52.5051L50.3117 52.2502V28.1965H35.0431C31.818 28.1965 30.1071 26.6296 30.0123 23.4456L30.0088 23.1599L30.01 7.59764ZM44.0991 34.0365C44.5276 34.4651 44.7683 35.0464 44.7683 35.6525C44.7683 36.2586 44.5276 36.8399 44.0991 37.2685L28.5723 52.7954C28.1436 53.2239 27.5624 53.4646 26.9563 53.4646C26.3502 53.4646 25.7689 53.2239 25.3403 52.7954L17.8134 45.2685C17.397 44.8374 17.1667 44.26 17.1719 43.6607C17.1771 43.0614 17.4175 42.4881 17.8413 42.0643C18.265 41.6406 18.8383 41.4002 19.4376 41.395C20.0369 41.3898 20.6143 41.6201 21.0454 42.0365L25.3403 46.3302L26.882 47.8079L28.5723 46.3302L40.866 34.0365C41.0782 33.8242 41.3303 33.6557 41.6076 33.5408C41.885 33.4259 42.1823 33.3667 42.4826 33.3667C42.7828 33.3667 43.0801 33.4259 43.3575 33.5408C43.6348 33.6557 43.8869 33.8242 44.0991 34.0365ZM34.0534 8.4285V22.6514C34.0534 23.6605 34.434 24.0994 35.3494 24.1474L35.5277 24.1519H49.482L34.0534 8.4285Z" fill="white"/>
</svg>
