<svg width="64" height="64" viewBox="0 0 64 64" fill="none" xmlns="http://www.w3.org/2000/svg">
<path d="M22.666 39.9999H41.3327M22.666 47.9999H31.9993M50.666 5.33325H13.3327C12.6254 5.33325 11.9472 5.6142 11.4471 6.1143C10.947 6.6144 10.666 7.29267 10.666 7.99992V55.9999C10.666 56.7072 10.947 57.3854 11.4471 57.8855C11.9472 58.3856 12.6254 58.6666 13.3327 58.6666H50.666C51.3733 58.6666 52.0515 58.3856 52.5516 57.8855C53.0517 57.3854 53.3327 56.7072 53.3327 55.9999V7.99992C53.3327 7.29267 53.0517 6.6144 52.5516 6.1143C52.0515 5.6142 51.3733 5.33325 50.666 5.33325Z" stroke="white" stroke-width="5" stroke-linecap="round" stroke-linejoin="round"/>
<path d="M40 17.3333L29.3333 27.9999L24 22.6666" stroke="white" stroke-width="5" stroke-linecap="round" stroke-linejoin="round"/>
</svg>
