<svg width="42" height="42" viewBox="0 0 42 42" fill="none" xmlns="http://www.w3.org/2000/svg">
<path d="M10.5 14H17.5M10.5 31.5H17.5M24.5 14H31.5M24.5 31.5H31.5M7 5.25L3.5 8.75V35C3.5 36.05 4.2 36.75 5.25 36.75H8.75C9.8 36.75 10.5 36.05 10.5 35V8.75L7 5.25ZM21 5.25L17.5 8.75V35C17.5 36.05 18.2 36.75 19.25 36.75H22.75C23.8 36.75 24.5 36.05 24.5 35V8.75L21 5.25ZM35 5.25L31.5 8.75V35C31.5 36.05 32.2 36.75 33.25 36.75H36.75C37.8 36.75 38.5 36.05 38.5 35V8.75L35 5.25Z" stroke="white" stroke-width="2" stroke-linecap="round" stroke-linejoin="round"/>
</svg>
