<svg width="64" height="64" viewBox="0 0 64 64" fill="none" xmlns="http://www.w3.org/2000/svg">
<path d="M5.33398 11.3332C5.33398 8.01954 8.02028 5.33325 11.334 5.33325H26.0007C29.3144 5.33325 32.0006 8.01954 32.0006 11.3333V25.9999C32.0006 29.3136 34.6869 31.9999 38.0006 31.9999H52.6673C55.981 31.9999 58.6673 34.6862 58.6673 37.9999V52.6666C58.6673 55.9803 55.981 58.6666 52.6673 58.6666H11.334C8.02027 58.6666 5.33398 55.9803 5.33398 52.6666V11.3332ZM14.0007 10.6666C12.1597 10.6666 10.6673 12.159 10.6673 13.9999V14.6613C10.6673 16.137 11.8663 17.3333 13.342 17.3333C14.8147 17.3333 16.0113 18.5272 16.0113 19.9999C16.0113 21.4727 14.8147 22.6666 13.342 22.6666C11.8663 22.6666 10.6673 23.8629 10.6673 25.3386V26.6613C10.6673 28.137 11.8663 29.3333 13.342 29.3333C14.8147 29.3333 16.0113 30.5272 16.0113 31.9999C16.0113 33.4727 14.8147 34.6666 13.342 34.6666C11.8663 34.6666 10.6673 35.8629 10.6673 37.3386V38.6613C10.6673 40.137 11.8663 41.3332 13.342 41.3332C14.8147 41.3332 16.0113 42.5272 16.0113 43.9999C16.0113 45.4727 14.8147 46.6666 13.342 46.6666C11.8663 46.6666 10.6673 47.8629 10.6673 49.3386V49.9999C10.6673 51.8409 12.1597 53.3332 14.0007 53.3332H14.7113C16.1598 53.3332 17.334 52.159 17.334 50.7106C17.334 49.2621 18.5082 48.0879 19.9566 48.0879H20.0447C21.4931 48.0879 22.6673 49.2621 22.6673 50.7106C22.6673 52.159 23.8415 53.3332 25.29 53.3332H26.7113C28.1598 53.3332 29.334 52.159 29.334 50.7106C29.334 49.2621 30.5082 48.0879 31.9566 48.0879H32.0447C33.4931 48.0879 34.6673 49.2621 34.6673 50.7106C34.6673 52.159 35.8415 53.3332 37.29 53.3332H38.7113C40.1598 53.3332 41.334 52.159 41.334 50.7106C41.334 49.2621 42.5082 48.0879 43.9566 48.0879H44.0447C45.4931 48.0879 46.6673 49.2621 46.6673 50.7106C46.6673 52.159 47.8415 53.3332 49.29 53.3332H50.0006C51.8416 53.3332 53.334 51.8409 53.334 49.9999V43.3332C53.334 40.0195 50.6477 37.3333 47.334 37.3333H32.6673C29.3536 37.3333 26.6673 34.647 26.6673 31.3333V16.6666C26.6673 13.3529 23.981 10.6666 20.6673 10.6666H14.0007Z" fill="white"/>
</svg>
