<svg width="24" height="24" viewBox="0 0 24 24" fill="none" xmlns="http://www.w3.org/2000/svg">
<path fill-rule="evenodd" clip-rule="evenodd" d="M14.5939 2.89697C13.8702 2.28018 12.9503 1.94141 11.9994 1.94141C11.0485 1.94141 10.1287 2.28018 9.40491 2.89697L9.02891 3.21697C8.70869 3.49013 8.31046 3.65531 7.89091 3.68897L7.39791 3.72897C6.44988 3.80442 5.55975 4.21517 4.88718 4.88756C4.21461 5.55994 3.80361 6.44996 3.72791 7.39797L3.68891 7.89097C3.65553 8.31041 3.49071 8.70863 3.21791 9.02897L2.89691 9.40497C2.27985 10.1288 1.94092 11.0488 1.94092 12C1.94092 12.9511 2.27985 13.8711 2.89691 14.595L3.21691 14.971C3.49007 15.2912 3.65524 15.6894 3.68891 16.109L3.72891 16.602C3.80435 17.55 4.21511 18.4401 4.88749 19.1127C5.55988 19.7853 6.4499 20.1963 7.39791 20.272L7.89091 20.311C8.31035 20.3444 8.70857 20.5092 9.02891 20.782L9.40491 21.102C10.1287 21.719 11.0488 22.058 11.9999 22.058C12.9511 22.058 13.8711 21.719 14.5949 21.102L14.9709 20.782C15.2913 20.5092 15.6895 20.3444 16.1089 20.311L16.6019 20.271C17.5499 20.1955 18.4401 19.7848 19.1126 19.1124C19.7852 18.44 20.1962 17.55 20.2719 16.602L20.3099 16.109C20.3436 15.6894 20.5088 15.2912 20.7819 14.971L21.1019 14.594C21.7187 13.8702 22.0575 12.9504 22.0575 11.9995C22.0575 11.0485 21.7187 10.1287 21.1019 9.40497L20.7819 9.02897C20.5088 8.70876 20.3436 8.31052 20.3099 7.89097L20.2709 7.39797C20.1955 6.44994 19.7847 5.55981 19.1123 4.88724C18.4399 4.21467 17.5499 3.80367 16.6019 3.72797L16.1089 3.68897C15.6895 3.65559 15.2913 3.49077 14.9709 3.21797L14.5939 2.89697ZM10.7029 4.41997C11.0648 4.11171 11.5246 3.9424 11.9999 3.9424C12.4753 3.9424 12.9351 4.11171 13.2969 4.41997L13.6739 4.74097C14.3145 5.28693 15.1109 5.61692 15.9499 5.68397L16.4429 5.72397C16.9167 5.76191 17.3614 5.96731 17.6975 6.30338C18.0336 6.63945 18.239 7.08422 18.2769 7.55797L18.3169 8.05097C18.384 8.88996 18.714 9.68641 19.2599 10.327L19.5799 10.704C19.8882 11.0658 20.0575 11.5256 20.0575 12.001C20.0575 12.4763 19.8882 12.9361 19.5799 13.298L19.2599 13.675C18.714 14.3155 18.384 15.112 18.3169 15.951L18.2769 16.444C18.239 16.9177 18.0336 17.3625 17.6975 17.6986C17.3614 18.0346 16.9167 18.24 16.4429 18.278L15.9499 18.318C15.1109 18.385 14.3145 18.715 13.6739 19.261L13.2969 19.581C12.9351 19.8892 12.4753 20.0585 11.9999 20.0585C11.5246 20.0585 11.0648 19.8892 10.7029 19.581L10.3259 19.261C9.68535 18.715 8.88889 18.385 8.04991 18.318L7.55691 18.278C7.08298 18.2403 6.63797 18.035 6.3017 17.6989C5.96542 17.3628 5.75988 16.9179 5.72191 16.444L5.68191 15.951C5.61514 15.1121 5.28551 14.3157 4.73991 13.675L4.41991 13.298C4.11165 12.9361 3.94234 12.4763 3.94234 12.001C3.94234 11.5256 4.11165 11.0658 4.41991 10.704L4.73991 10.327C5.28587 9.68641 5.61586 8.88996 5.68291 8.05097L5.72291 7.55797C5.76062 7.08404 5.96592 6.63903 6.30201 6.30276C6.6381 5.96649 7.083 5.76094 7.55691 5.72297L8.04991 5.68397C8.88889 5.61692 9.68535 5.28693 10.3259 4.74097L10.7029 4.41997ZM15.7069 9.70797C15.8024 9.61573 15.8786 9.50538 15.931 9.38338C15.9834 9.26137 16.011 9.13015 16.0122 8.99738C16.0133 8.8646 15.988 8.73292 15.9377 8.61002C15.8875 8.48712 15.8132 8.37547 15.7193 8.28158C15.6254 8.18769 15.5138 8.11343 15.3909 8.06315C15.268 8.01287 15.1363 7.98757 15.0035 7.98872C14.8707 7.98988 14.7395 8.01746 14.6175 8.06987C14.4955 8.12228 14.3852 8.19846 14.2929 8.29397L8.29291 14.294C8.1974 14.3862 8.12122 14.4966 8.06881 14.6186C8.0164 14.7406 7.98882 14.8718 7.98766 15.0046C7.98651 15.1374 8.01181 15.269 8.06209 15.3919C8.11237 15.5148 8.18662 15.6265 8.28052 15.7204C8.37441 15.8143 8.48606 15.8885 8.60896 15.9388C8.73185 15.9891 8.86353 16.0144 8.99631 16.0132C9.12909 16.0121 9.26031 15.9845 9.38232 15.9321C9.50432 15.8797 9.61466 15.8035 9.70691 15.708L15.7069 9.70797ZM10.9999 9.49997C10.9999 9.8978 10.8419 10.2793 10.5606 10.5606C10.2793 10.8419 9.89774 11 9.49991 11C9.10209 11 8.72056 10.8419 8.43925 10.5606C8.15795 10.2793 7.99991 9.8978 7.99991 9.49997C7.99991 9.10215 8.15795 8.72062 8.43925 8.43931C8.72056 8.15801 9.10209 7.99997 9.49991 7.99997C9.89774 7.99997 10.2793 8.15801 10.5606 8.43931C10.8419 8.72062 10.9999 9.10215 10.9999 9.49997ZM14.4999 16C14.8977 16 15.2793 15.8419 15.5606 15.5606C15.8419 15.2793 15.9999 14.8978 15.9999 14.5C15.9999 14.1021 15.8419 13.7206 15.5606 13.4393C15.2793 13.158 14.8977 13 14.4999 13C14.1021 13 13.7206 13.158 13.4393 13.4393C13.1579 13.7206 12.9999 14.1021 12.9999 14.5C12.9999 14.8978 13.1579 15.2793 13.4393 15.5606C13.7206 15.8419 14.1021 16 14.4999 16Z" fill="white"/>
</svg>
