<svg width="64" height="64" viewBox="0 0 64 64" fill="none" xmlns="http://www.w3.org/2000/svg">
<path d="M17 58.6666V55.2452C17.0012 52.488 16.3689 49.7674 15.152 47.2933L14.376 45.7146C12.8137 42.5337 12.0009 39.0371 12 35.4933V21.8399C12 19.7386 13.68 18.0319 15.7493 18.0319C17.8213 18.0319 19.5013 19.7386 19.5013 21.8399M39.5013 58.6666V55.2559C39.5067 52.2079 42.688 50.6559 45.2907 49.1386C48.2667 47.4026 50.6507 44.5999 51.752 41.2293C52.4747 39.0106 50.472 37.0826 48.0773 37.0826C45.6827 37.0826 43.6507 39.1733 41.9173 40.7759C41.6886 40.9901 41.4414 41.1838 41.1787 41.3546C37.7973 43.5119 33.2827 40.9173 33.2827 37.0826C33.2827 33.2479 37.7973 30.6533 41.1787 32.8079C42.0213 33.2506 42.7173 33.8373 43.272 34.4479C44.5333 35.8346 46.1947 37.0826 48.0987 37.0826C50.5333 37.0826 52.576 35.1173 51.8533 32.8559C50.9333 30.0174 49.1353 27.5445 46.7187 25.7941C44.3021 24.0438 41.3919 23.1064 38.408 23.1173C35.7493 23.1173 34.4987 23.8693 34.4987 23.8693L40.2187 10.5253C41.2187 8.04792 39.4267 5.33325 36.7893 5.33325C35.3867 5.33325 34.104 6.13859 33.4747 7.41325L27 20.5706M27 20.5706L25.8053 22.9972M27 20.5706V11.6826C27 9.57859 25.32 7.87192 23.2507 7.87192C21.1787 7.87192 19.5013 9.57859 19.5013 11.6826V21.8426V30.7306" stroke="white" stroke-width="5" stroke-linecap="round" stroke-linejoin="round"/>
</svg>
