<svg width="69" height="52" viewBox="0 0 69 52" fill="none" xmlns="http://www.w3.org/2000/svg">
<path d="M64.4922 5.00781C54.4782 6.15294 46.6584 14.3595 46.6582 24.373C46.6582 25.7072 47.7513 26.707 49.043 26.707H67.123V50.333H42.5107V24.373C42.5109 12.2696 52.1401 2.23224 64.4922 1.07617V5.00781ZM22.9541 5.00879C18.2265 5.55837 13.8349 7.70372 10.5703 11.0869C7.09186 14.6918 5.15043 19.4373 5.14746 24.373L5.16016 24.6191C5.28482 25.8284 6.32114 26.707 7.53223 26.707H25.6123V50.333H1V24.373C1.00015 12.2696 10.629 2.23302 22.9541 1.07617V5.00879Z" stroke="#83CD20" stroke-width="2"/>
</svg>
