<svg width="64" height="64" viewBox="0 0 64 64" fill="none" xmlns="http://www.w3.org/2000/svg">
<path d="M42.666 23.9999C42.666 37.2661 24.0812 38.1501 21.6043 26.652C21.2941 25.2123 22.5266 23.9999 23.9993 23.9999C25.4721 23.9999 26.5771 25.2674 27.2401 26.5825C29.4565 30.979 37.3327 30.1181 37.3327 23.9999M53.3327 47.9999V50.9999C53.3327 53.7613 51.0941 55.9999 48.3327 55.9999H15.666C12.9046 55.9999 10.666 53.7613 10.666 50.9999V47.9999C10.666 40.8799 24.8793 37.3333 31.9993 37.3333C39.1194 37.3333 53.3327 40.8799 53.3327 47.9999ZM48.266 47.9999C48.266 46.2933 39.9193 42.3999 31.9993 42.3999C24.0793 42.3999 15.7327 46.2933 15.7327 47.9999C15.7327 49.62 17.046 50.9333 18.666 50.9333H48.266M33.3327 5.33325C34.0793 5.33325 34.666 5.91992 34.666 6.66659V13.3333C34.666 14.0696 35.263 14.6666 35.9993 14.6666C36.7357 14.6666 37.3327 14.0696 37.3327 13.3333V12.0672C37.3327 10.169 39.3121 8.98418 40.5994 10.3792C41.0778 10.8976 41.5044 11.466 41.871 12.0769C42.616 13.3187 43.0892 14.6963 43.2682 16.1196C43.403 17.1919 43.3185 17.7449 44.1487 18.4368C45.0989 19.2286 44.2995 21.3333 43.0627 21.3333H20.8973C19.665 21.3333 18.8173 19.2632 19.762 18.472C20.6224 17.7514 20.5922 17.1541 20.7406 16.0417C20.9269 14.6461 21.3963 13.296 22.1277 12.0769C22.4943 11.466 22.9209 10.8976 23.3993 10.3792C24.6866 8.98418 26.666 10.169 26.666 12.0672V13.3333C26.666 14.0696 27.263 14.6666 27.9993 14.6666C28.7357 14.6666 29.3327 14.0696 29.3327 13.3333V6.66659C29.3327 5.91992 29.9193 5.33325 30.666 5.33325" fill="white"/>
</svg>
